<?xml version="1.0" standalone="no"?>
<!DOCTYPE svg PUBLIC "-//W3C//DTD SVG 20010904//EN"
 "http://www.w3.org/TR/2001/REC-SVG-20010904/DTD/svg10.dtd">
<svg version="1.0" xmlns="http://www.w3.org/2000/svg"
 width="1287.000000pt" height="643.000000pt" viewBox="0 0 1287.000000 643.000000"
 preserveAspectRatio="xMidYMid meet">

<g transform="translate(0.000000,643.000000) scale(0.100000,-0.100000)"
fill="#000000" stroke="none">
<path d="M1100 5105 l0 -525 100 0 100 0 0 525 0 525 -100 0 -100 0 0 -525z"/>
<path d="M2970 5105 l0 -525 99 0 99 0 5 233 c3 148 9 245 17 269 26 75 99
115 178 97 81 -18 92 -61 92 -361 l0 -238 100 0 100 0 0 283 c0 322 -5 352
-71 418 -93 93 -286 92 -380 -2 -22 -22 -40 -39 -41 -39 -2 0 -2 88 0 195 l3
195 -101 0 -100 0 0 -525z"/>
<path d="M3924 5620 c-60 -24 -73 -112 -25 -161 24 -23 38 -29 75 -29 25 0 56
5 69 11 43 20 60 89 36 143 -18 40 -100 58 -155 36z"/>
<path d="M11610 5105 l0 -525 100 0 100 0 0 525 0 525 -100 0 -100 0 0 -525z"/>
<path d="M12482 5436 l4 -193 -24 29 c-44 52 -97 72 -187 73 -67 0 -89 -4
-130 -26 -60 -30 -116 -105 -142 -188 -23 -77 -24 -265 0 -342 38 -128 124
-206 236 -216 84 -8 142 11 200 63 l49 44 21 -50 22 -50 79 0 80 0 0 525 0
525 -106 0 -107 0 5 -194z m-65 -276 c53 -32 67 -71 71 -195 3 -99 1 -114 -20
-155 -27 -53 -64 -74 -130 -73 -59 1 -91 21 -120 76 -19 35 -23 58 -23 142 0
114 22 176 72 207 38 24 110 23 150 -2z"/>
<path d="M540 5570 c-69 -15 -161 -65 -213 -115 -184 -182 -182 -612 4 -779
57 -51 94 -70 180 -92 79 -21 235 -14 324 13 l60 19 3 87 c1 48 1 87 -1 87 -2
0 -39 -9 -83 -21 -109 -28 -217 -29 -271 -1 -93 48 -133 138 -134 299 0 126
25 214 78 268 84 86 190 90 373 11 11 -5 23 13 47 76 18 45 29 86 25 90 -4 4
-41 19 -81 33 -83 29 -234 41 -311 25z"/>
<path d="M6360 5075 l0 -495 96 0 97 0 -5 387 c-3 316 -2 379 8 347 13 -39 42
-134 149 -484 31 -102 61 -200 66 -218 l11 -33 96 3 96 3 127 385 126 385 -5
-387 -5 -388 102 0 101 0 0 495 0 495 -143 0 -142 0 -27 -77 c-15 -43 -70
-210 -123 -372 -52 -162 -97 -297 -100 -299 -4 -4 -74 216 -210 661 l-27 87
-144 0 -144 0 0 -495z"/>
<path d="M8694 5553 c3 -10 51 -198 106 -418 56 -220 110 -435 122 -477 l20
-78 119 0 118 0 10 38 c55 209 141 562 152 622 l13 75 9 -40 c4 -22 45 -187
90 -367 l81 -328 122 0 121 0 20 88 c11 48 66 266 122 485 55 220 101 403 101
408 0 6 -43 8 -101 7 l-102 -3 -23 -100 c-103 -443 -124 -539 -134 -600 -6
-38 -12 -71 -14 -72 -1 -1 -10 41 -20 95 -10 53 -35 162 -56 242 -20 80 -55
212 -75 293 l-38 148 -100 -3 -100 -3 -64 -245 c-77 -298 -113 -450 -113 -484
0 -14 -4 -26 -10 -26 -5 0 -10 10 -10 23 0 20 -63 305 -136 620 l-28 117 -104
0 c-94 0 -103 -2 -98 -17z"/>
<path d="M2434 5410 c-28 -77 -30 -80 -86 -112 -56 -32 -57 -34 -58 -75 0 -46
3 -48 73 -45 l27 1 0 -208 c0 -161 4 -219 16 -262 21 -70 66 -113 135 -129 59
-14 175 -9 234 11 37 13 40 17 39 49 -1 19 -2 54 -3 77 l-1 42 -32 -10 c-47
-13 -121 -13 -146 0 -11 6 -23 19 -27 30 -4 14 -9 309 -6 382 1 9 7 17 14 16
6 0 54 1 105 1 l92 2 0 75 0 74 -107 3 -107 3 1 78 1 77 -68 0 -68 0 -28 -80z"/>
<path d="M1733 5340 c-99 -20 -193 -103 -233 -206 -33 -85 -34 -254 -2 -335
63 -161 189 -238 370 -226 224 14 343 166 330 423 -9 174 -92 289 -239 335
-63 20 -152 23 -226 9z m202 -190 c52 -49 73 -215 39 -313 -23 -68 -62 -97
-130 -97 -118 0 -159 59 -158 225 0 113 21 171 72 200 43 24 144 16 177 -15z"/>
<path d="M4617 5333 c-26 -9 -66 -33 -87 -55 -22 -21 -42 -38 -44 -38 -2 0 -9
20 -16 45 l-13 45 -78 0 -79 0 0 -375 0 -375 99 0 99 0 5 233 c3 148 9 245 17
269 38 109 191 139 245 48 18 -32 20 -54 23 -292 l3 -258 100 0 99 0 0 285 c0
262 -2 289 -20 339 -13 33 -35 67 -55 85 -66 57 -199 77 -298 44z"/>
<path d="M5370 5341 c-56 -12 -127 -50 -155 -82 -57 -68 -69 -202 -26 -286 20
-41 73 -93 93 -93 6 0 -7 -13 -30 -29 -70 -51 -78 -134 -17 -191 l24 -23 -48
-22 c-55 -26 -87 -62 -101 -116 -12 -43 -1 -105 24 -144 59 -89 252 -128 449
-91 125 24 221 86 253 163 19 45 18 157 -2 200 -20 40 -64 76 -117 93 -21 7
-101 14 -178 16 -149 4 -179 12 -179 47 0 38 19 47 96 47 246 0 376 160 298
365 -4 9 11 17 50 26 l56 12 0 54 0 53 -117 0 c-65 0 -167 2 -228 5 -60 2
-126 1 -145 -4z m163 -133 c61 -32 60 -204 -1 -237 -26 -14 -97 -14 -123 -1
-10 6 -26 25 -35 42 -22 42 -16 149 11 178 33 36 97 44 148 18z m97 -656 c29
-14 36 -23 38 -53 6 -69 -75 -110 -218 -112 -56 -1 -85 4 -115 18 -73 36 -69
117 8 150 49 22 242 20 287 -3z"/>
<path d="M10311 5329 c-85 -27 -168 -107 -201 -194 -30 -80 -33 -233 -7 -320
50 -162 190 -255 367 -242 232 16 349 159 338 416 -3 82 -8 105 -35 161 -17
36 -43 78 -58 93 -94 98 -257 132 -404 86z m223 -170 c50 -39 61 -74 61 -194
0 -90 -4 -117 -20 -149 -29 -57 -62 -78 -123 -78 -114 1 -156 62 -156 227 0
159 40 214 155 215 42 0 63 -5 83 -21z"/>
<path d="M11325 5338 c-44 -16 -119 -73 -135 -102 -7 -14 -17 -26 -20 -26 -4
0 -13 27 -21 60 l-13 60 -78 0 -78 0 0 -375 0 -375 100 0 100 0 0 203 c0 111
5 219 11 240 23 85 125 147 220 134 44 -6 46 -1 51 118 l3 70 -55 2 c-30 1
-68 -3 -85 -9z"/>
<path d="M3880 4955 l0 -375 100 0 100 0 0 375 0 375 -100 0 -100 0 0 -375z"/>
<path d="M7561 5278 c11 -29 49 -123 84 -208 207 -507 196 -475 180 -520 -34
-95 -80 -130 -175 -130 l-60 0 0 -79 c0 -90 0 -91 102 -91 105 0 205 54 267
143 15 23 59 123 96 222 37 99 109 290 160 425 51 135 95 255 99 268 7 22 7
22 -101 22 l-109 0 -82 -249 c-45 -137 -82 -259 -83 -272 -1 -13 -7 1 -13 31
-7 30 -46 153 -87 272 l-74 218 -112 0 -113 0 21 -52z"/>
<path d="M6340 3423 c-287 -31 -583 -173 -771 -370 -181 -188 -311 -458 -335
-695 -6 -59 -9 -67 -30 -72 -13 -4 -608 -6 -1321 -6 -987 1 -1303 4 -1318 13
-11 7 -190 139 -397 294 -207 155 -391 289 -409 298 -95 50 -221 -12 -205 -99
6 -32 31 -53 310 -263 168 -125 302 -230 300 -232 -3 -3 -51 -6 -108 -6 l-103
-2 -379 284 c-208 157 -398 296 -420 309 -115 68 -268 -14 -215 -115 6 -9 145
-118 310 -242 166 -123 301 -226 301 -229 0 -7 -160 -11 -197 -5 -21 4 -161
102 -419 296 -213 159 -400 297 -417 305 -55 29 -144 17 -187 -26 -21 -21 -27
-69 -10 -99 5 -10 176 -143 380 -296 203 -152 370 -280 370 -284 -1 -3 -159
-123 -352 -266 -192 -143 -363 -272 -379 -287 -58 -53 -29 -133 57 -157 83
-23 100 -14 399 210 143 107 322 241 397 297 l137 102 117 0 116 0 -83 -62
c-363 -269 -510 -380 -528 -399 -47 -51 -11 -128 72 -150 51 -14 91 -6 142 28
22 15 208 152 413 305 l372 278 116 0 116 0 -303 -227 c-167 -124 -309 -233
-316 -242 -21 -28 -15 -76 13 -105 25 -24 80 -46 114 -46 44 2 114 48 425 280
187 139 366 273 398 296 l59 44 1328 0 1328 0 7 -52 c22 -173 96 -366 200
-523 57 -86 200 -231 293 -298 207 -149 419 -223 672 -233 573 -25 1086 353
1235 908 13 49 27 113 30 143 l7 55 1122 0 1121 0 355 -266 c195 -146 362
-269 370 -274 8 -4 32 -10 52 -14 38 -7 27 -10 608 176 85 27 189 60 230 73
41 13 266 85 500 160 234 76 446 144 472 152 57 17 88 53 88 100 0 57 -33 77
-229 139 -97 31 -345 110 -551 176 -914 294 -1057 338 -1092 338 -20 0 -49 -5
-64 -10 -15 -6 -187 -131 -383 -278 l-356 -267 -1120 0 -1119 0 -12 85 c-67
494 -431 896 -923 1020 -132 33 -286 45 -401 33z m4750 -903 c107 -34 276 -88
375 -120 291 -95 588 -189 618 -196 15 -3 29 -9 32 -13 2 -4 -71 -31 -163 -60
-92 -29 -297 -95 -457 -146 -159 -52 -392 -126 -516 -165 l-226 -72 -223 166
-223 166 471 0 c500 0 501 0 555 49 44 41 32 110 -26 143 -16 10 -144 14 -510
18 l-487 5 222 166 221 166 71 -23 c39 -12 159 -50 266 -84z m-4558 -67 c15
-16 27 -35 28 -43 6 -43 -2 -71 -30 -97 -47 -44 -41 -73 23 -106 52 -27 141
-74 340 -181 l107 -58 0 -44 0 -44 -536 0 -535 0 3 46 c3 52 -23 33 263 184
248 130 235 121 235 157 0 24 10 44 36 73 37 41 39 65 8 77 -11 4 -23 -1 -33
-13 -9 -11 -28 -20 -43 -20 -37 0 -37 30 -1 68 38 39 98 39 135 1z"/>
<path d="M6250 2066 l-205 -111 213 -3 c117 -1 306 -1 419 0 l206 3 -94 51
c-52 29 -139 75 -194 104 -55 29 -104 57 -109 61 -6 5 -15 9 -20 8 -6 -1 -103
-51 -216 -113z"/>
</g>
</svg>
