<?xml version="1.0" standalone="no"?>
<!DOCTYPE svg PUBLIC "-//W3C//DTD SVG 20010904//EN"
 "http://www.w3.org/TR/2001/REC-SVG-20010904/DTD/svg10.dtd">
<svg version="1.0" xmlns="http://www.w3.org/2000/svg"
 width="1287.000000pt" height="643.000000pt" viewBox="0 0 1287.000000 643.000000"
 preserveAspectRatio="xMidYMid meet">

<g transform="translate(0.000000,643.000000) scale(0.100000,-0.100000)"
fill="#000000" stroke="none">
<path d="M0 3215 l0 -3215 6435 0 6435 0 0 3215 0 3215 -6435 0 -6435 0 0
-3215z m1305 1890 l0 -530 -105 0 -105 0 -3 520 c-1 286 0 526 3 533 3 9 31
12 107 10 l103 -3 0 -530z m1870 338 l0 -192 35 34 c51 50 102 68 191 68 92 0
149 -23 201 -81 63 -70 69 -108 66 -423 l-3 -274 -105 0 -105 0 -5 265 c-4
234 -7 269 -23 293 -31 47 -96 60 -163 32 -26 -11 -40 -27 -57 -62 -20 -44
-22 -68 -27 -288 l-5 -240 -105 0 -105 0 -3 520 c-1 286 0 526 3 533 3 9 31
12 107 10 l103 -3 0 -192z m883 171 c30 -19 45 -60 38 -103 -7 -44 -30 -68
-78 -83 -111 -33 -196 73 -133 168 28 43 119 52 173 18z m7757 -509 l0 -530
-105 0 -105 0 -3 520 c-1 286 0 526 3 533 3 9 31 12 107 10 l103 -3 0 -530z
m870 0 l0 -530 -78 -3 -78 -3 -21 48 c-11 26 -22 50 -24 52 -2 2 -15 -10 -29
-27 -56 -67 -184 -95 -279 -63 -85 29 -161 128 -186 242 -19 85 -9 269 19 340
27 72 88 141 147 170 93 45 228 23 299 -48 l31 -30 -7 56 c-10 74 -11 316 -2
325 4 4 52 5 107 4 l101 -3 0 -530z m-11844 449 c106 -33 107 -37 71 -131 -34
-89 -31 -88 -137 -49 -188 69 -318 -4 -354 -199 -15 -79 -14 -146 4 -229 18
-86 52 -139 108 -168 57 -31 201 -31 296 0 36 12 68 19 73 16 4 -3 8 -43 8
-89 0 -97 3 -93 -100 -121 -93 -24 -256 -23 -337 4 -189 60 -285 223 -286 482
0 167 37 277 128 378 54 60 160 117 245 131 77 13 192 3 281 -25z m5926 -348
c62 -203 115 -371 116 -372 2 -2 57 164 124 369 l121 372 144 0 143 0 0 -500
0 -500 -95 0 -95 0 -4 365 -3 365 -122 -365 -121 -365 -99 0 -99 0 -109 355
c-59 195 -110 360 -112 365 -2 6 -3 -154 -2 -355 l1 -365 -95 0 -95 0 -3 490
c-1 270 0 496 3 503 3 9 38 12 146 10 l142 -3 114 -369z m2130 362 c10 -14
149 -607 159 -681 8 -57 19 -53 28 9 6 47 163 660 172 676 9 14 190 10 201 -4
19 -25 181 -676 184 -738 0 -14 9 18 19 70 22 117 148 659 156 671 7 11 201
12 208 1 5 -9 -236 -971 -248 -991 -5 -7 -48 -11 -122 -11 -109 0 -115 1 -124
23 -12 26 -132 494 -157 609 l-17 81 -23 -109 c-13 -60 -52 -219 -87 -354
l-63 -245 -123 0 -124 0 -124 489 c-68 268 -121 494 -118 502 7 19 189 20 203
2z m-6299 -150 l3 -77 102 -3 102 -3 0 -80 0 -80 -102 -3 -103 -3 0 -190 0
-190 26 -26 c24 -23 30 -25 82 -19 120 13 107 21 110 -67 3 -76 2 -77 -24 -87
-15 -6 -60 -15 -100 -21 -144 -20 -234 17 -284 117 -24 47 -25 58 -28 266 l-4
217 -41 3 -42 3 -3 46 -3 46 55 33 c49 30 57 40 77 94 38 105 41 107 112 104
l62 -3 3 -77z m-608 -91 c65 -24 146 -100 177 -167 49 -106 54 -262 12 -375
-25 -68 -97 -149 -160 -180 -26 -14 -79 -29 -117 -35 -175 -27 -327 51 -399
205 -26 56 -28 69 -28 190 0 120 2 135 26 186 68 145 201 217 374 202 33 -3
85 -15 115 -26z m2865 4 c57 -25 111 -90 130 -154 13 -44 15 -103 13 -328 l-3
-274 -105 0 -105 0 -5 265 c-4 234 -7 269 -23 293 -31 47 -96 60 -163 32 -26
-11 -40 -27 -57 -62 -20 -44 -22 -68 -27 -288 l-5 -240 -105 0 -105 0 0 380 0
380 73 3 c83 3 97 -4 106 -53 4 -19 10 -35 14 -35 5 0 23 16 42 35 31 32 85
57 150 69 42 7 133 -5 175 -23z m1003 14 c16 -6 16 -101 0 -112 -7 -4 -31 -13
-53 -19 -32 -8 -39 -14 -36 -30 2 -10 5 -58 5 -105 1 -78 -2 -89 -27 -128 -31
-47 -101 -96 -162 -113 -22 -6 -74 -11 -115 -12 -86 -2 -100 -8 -100 -41 0
-13 6 -27 13 -32 6 -4 82 -10 167 -13 131 -5 161 -9 195 -27 79 -42 115 -100
115 -187 0 -129 -96 -228 -260 -266 -81 -20 -262 -18 -333 3 -62 19 -128 70
-153 118 -18 36 -18 112 0 148 19 36 79 89 111 97 24 6 35 24 16 24 -18 0 -51
68 -51 105 0 31 8 45 44 81 24 24 40 44 35 44 -15 0 -70 62 -90 103 -28 55
-29 157 -2 217 37 81 112 134 213 149 45 7 444 3 468 -4z m4742 -18 c65 -24
146 -100 177 -167 49 -106 54 -262 12 -375 -25 -68 -97 -149 -160 -180 -26
-14 -79 -29 -117 -35 -175 -27 -327 51 -399 205 -26 56 -28 69 -28 190 0 120
2 135 26 186 68 145 201 217 374 202 33 -3 85 -15 115 -26z m844 23 c23 -8 26
-15 25 -57 0 -27 -4 -68 -7 -93 l-7 -45 -77 -6 c-88 -7 -138 -32 -166 -82 -14
-27 -18 -69 -22 -262 l-5 -230 -105 0 -105 0 0 380 0 380 80 0 80 0 13 -45 c8
-25 15 -51 18 -58 2 -8 15 0 35 23 44 50 85 77 138 91 58 16 73 16 105 4z
m-7359 -395 l0 -380 -105 0 -105 0 -3 370 c-1 203 0 376 3 383 3 9 31 12 107
10 l103 -3 0 -380z m3682 373 c15 -19 163 -460 164 -489 1 -20 2 -21 6 -4 10
46 157 481 166 493 11 14 212 18 221 4 5 -9 -302 -828 -336 -896 -37 -75 -85
-123 -155 -158 -59 -29 -74 -32 -150 -31 -46 0 -89 5 -94 10 -5 5 -9 45 -7 89
l3 79 47 -3 c94 -7 162 40 187 129 l12 44 -146 360 c-80 198 -143 366 -140
373 3 8 34 12 108 12 72 0 108 -4 114 -12z m-1099 -1917 c523 -102 913 -501
999 -1023 l16 -98 1115 0 1114 0 352 262 c193 145 367 271 386 281 25 13 48
17 80 13 25 -3 205 -57 400 -120 195 -62 582 -186 860 -275 278 -89 517 -167
533 -173 34 -13 77 -63 77 -88 0 -30 -21 -68 -46 -84 -12 -9 -217 -78 -455
-155 -1385 -446 -1396 -449 -1452 -419 -12 6 -181 130 -375 275 l-353 263
-1119 0 -1120 0 -4 -22 c-3 -13 -12 -60 -21 -106 -80 -416 -417 -788 -835
-920 -246 -78 -529 -75 -769 9 -408 141 -739 521 -811 929 -6 36 -13 75 -16
88 l-4 22 -1328 0 -1327 0 -390 -291 c-214 -160 -403 -298 -419 -306 -86 -45
-210 10 -210 94 0 45 -2 43 347 303 l269 200 -109 0 -109 0 -389 -291 c-215
-160 -403 -297 -419 -306 -61 -32 -152 -12 -195 43 -26 33 -27 64 -1 97 11 14
148 120 305 237 157 116 285 213 285 216 0 2 -47 4 -103 4 l-104 0 -402 -299
c-221 -165 -411 -303 -423 -307 -62 -19 -138 3 -177 52 -26 34 -27 64 -1 97
11 14 185 148 385 298 l365 271 -372 280 c-205 153 -378 289 -385 301 -18 33
-16 61 9 92 40 51 132 71 189 41 15 -7 205 -147 424 -310 l397 -297 105 3 105
3 -286 214 c-158 118 -298 228 -312 243 -30 36 -31 67 -2 103 38 48 120 69
182 45 14 -5 206 -145 426 -310 l401 -301 106 3 107 3 -287 213 c-157 117
-298 227 -312 243 -30 36 -31 54 -6 95 33 54 120 79 185 54 14 -5 206 -144
427 -310 l402 -300 1322 0 1322 0 13 88 c64 444 389 835 820 986 188 67 424
84 618 47z"/>
<path d="M12280 5163 c-52 -27 -74 -79 -78 -186 -7 -159 31 -227 130 -235 110
-8 162 69 154 228 -4 102 -27 165 -66 185 -48 25 -101 28 -140 8z"/>
<path d="M1770 5163 c-54 -28 -74 -72 -78 -178 -7 -148 29 -225 111 -240 125
-24 181 47 180 225 -1 97 -21 160 -59 185 -39 25 -113 29 -154 8z"/>
<path d="M5419 5209 c-64 -24 -76 -172 -18 -225 31 -28 111 -26 140 2 42 42
43 165 2 206 -23 23 -87 32 -124 17z"/>
<path d="M5345 4551 c-61 -25 -73 -97 -22 -135 24 -18 43 -21 125 -21 119 0
184 21 208 67 20 38 7 74 -32 88 -30 12 -251 12 -279 1z"/>
<path d="M10380 5163 c-54 -28 -74 -72 -78 -178 -7 -148 29 -225 111 -240 125
-24 181 47 180 225 -1 97 -21 160 -59 185 -39 25 -113 29 -154 8z"/>
<path d="M10537 2462 l-207 -157 472 -5 c348 -4 479 -8 494 -17 34 -20 74 -72
74 -97 0 -27 -31 -70 -63 -89 -16 -9 -146 -13 -504 -17 l-482 -5 215 -160
c119 -88 219 -159 223 -159 3 1 213 68 466 149 253 81 553 177 667 213 114 36
205 68 203 71 -3 2 -121 41 -262 87 -142 45 -442 141 -666 213 -225 72 -411
131 -415 130 -4 0 -100 -71 -215 -157z"/>
<path d="M6413 2460 c-18 -11 -33 -24 -33 -29 0 -5 -3 -16 -6 -25 -5 -12 1
-16 24 -16 18 0 32 6 36 16 4 10 15 14 33 12 41 -4 44 -45 7 -74 -19 -16 -29
-35 -33 -65 -7 -50 4 -42 -308 -208 l-193 -102 0 -40 0 -39 526 0 525 0 -3 41
-3 41 -225 120 c-124 66 -235 126 -247 134 -31 20 -29 45 7 79 38 36 47 82 25
124 -26 52 -79 64 -132 31z m275 -393 c111 -60 200 -113 196 -118 -7 -12 -831
-12 -838 0 -7 11 403 232 424 229 8 -2 106 -52 218 -111z"/>
</g>
</svg>
